HIERARCHY
ROOT Hips
{
  OFFSET 5.84602e-005 68.8428 3.50346
  CHANNELS 6 Xposition Yposition Zposition Zrotation Xrotation Yrotation
  JOINT Spine
  {
    OFFSET 0 8.597 -4.6522
    CHANNELS 3 Zrotation Xrotation Yrotation
    JOINT Spine1
    {
      OFFSET 0 7.8454 0.4098
      CHANNELS 3 Zrotation Xrotation Yrotation
      JOINT Spine2
      {
        OFFSET 0 9.7078 -2.1609
        CHANNELS 3 Zrotation Xrotation Yrotation
        JOINT Neck
        {
          OFFSET 0 21.8761 -0.4549
          CHANNELS 3 Zrotation Xrotation Yrotation
          JOINT Head
          {
            OFFSET 0 12.3537 3.3602
            CHANNELS 3 Zrotation Xrotation Yrotation
            End Site
            {
              OFFSET 0.0001 18.9506 0.5657
            }
          }
        }
        JOINT LeftShoulder
        {
          OFFSET 2.2086 21.1115 7.2329
          CHANNELS 3 Zrotation Xrotation Yrotation
          JOINT LeftArm
          {
            OFFSET 13.1193 3.0282 -4.8998
            CHANNELS 3 Zrotation Xrotation Yrotation
            JOINT LeftForeArm
            {
              OFFSET 27.4081 -0.0973053 -0.2375
              CHANNELS 3 Zrotation Xrotation Yrotation
              JOINT LeftHand
              {
                OFFSET 22.8641 0.0662994 -0.1369
                CHANNELS 3 Zrotation Xrotation Yrotation
                JOINT LeftHandIndex1
                {
                  OFFSET 8.8614 0.775009 2.4612
                  CHANNELS 3 Zrotation Xrotation Yrotation
                  JOINT LeftHandIndex2
                  {
                    OFFSET 3.3146 -0.808304 0.5841
                    CHANNELS 3 Zrotation Xrotation Yrotation
                    JOINT LeftHandIndex3
                    {
                      OFFSET 2.2628 -0.552002 0.3989
                      CHANNELS 3 Zrotation Xrotation Yrotation
                      End Site
                      {
                        OFFSET 1.6102 -0.4807 0.2612
                      }
                    }
                  }
                }
                JOINT LeftHandMiddle1
                {
                  OFFSET 8.9937 0.895004 0.2143
                  CHANNELS 3 Zrotation Xrotation Yrotation
                  JOINT LeftHandMiddle2
                  {
                    OFFSET 4.0984 0.0113983 -0.0242
                    CHANNELS 3 Zrotation Xrotation Yrotation
                    JOINT LeftHandMiddle3
                    {
                      OFFSET 2.2716 0.00689697 -0.0138001
                      CHANNELS 3 Zrotation Xrotation Yrotation
                      End Site
                      {
                        OFFSET 2.0404 -0.1441 0.0027
                      }
                    }
                  }
                }
                JOINT LeftHandRing1
                {
                  OFFSET 8.5234 0.597198 -2.0164
                  CHANNELS 3 Zrotation Xrotation Yrotation
                  JOINT LeftHandRing2
                  {
                    OFFSET 3.7188 -0.188293 -0.2328
                    CHANNELS 3 Zrotation Xrotation Yrotation
                    JOINT LeftHandRing3
                    {
                      OFFSET 2.1191 -0.106598 -0.1332
                      CHANNELS 3 Zrotation Xrotation Yrotation
                      End Site
                      {
                        OFFSET 1.8737 -0.2304 -0.0886
                      }
                    }
                  }
                }
                JOINT LeftHandPinky1
                {
                  OFFSET 7.9094 -0.601089 -3.4825
                  CHANNELS 3 Zrotation Xrotation Yrotation
                  JOINT LeftHandPinky2
                  {
                    OFFSET 2.2874 -0.477005 -0.6314
                    CHANNELS 3 Zrotation Xrotation Yrotation
                    JOINT LeftHandPinky3
                    {
                      OFFSET 1.6774 -0.349396 -0.4633
                      CHANNELS 3 Zrotation Xrotation Yrotation
                      End Site
                      {
                        OFFSET 1.4888 -0.4091 -0.3416
                      }
                    }
                  }
                }
                JOINT LeftHandThumb1
                {
                  OFFSET 1.833 -1.3875 1.3896
                  CHANNELS 3 Zrotation Xrotation Yrotation
                  JOINT LeftHandThumb2
                  {
                    OFFSET 3.4129 -1.121 2.5732
                    CHANNELS 3 Zrotation Xrotation Yrotation
                    JOINT LeftHandThumb3
                    {
                      OFFSET 2.2474 -0.804199 1.6192
                      CHANNELS 3 Zrotation Xrotation Yrotation
                      End Site
                      {
                        OFFSET 1.6527 -0.5689 1.1317
                      }
                    }
                  }
                }
              }
            }
          }
        }
        JOINT RightShoulder
        {
          OFFSET -2.2086 21.1115 7.2329
          CHANNELS 3 Zrotation Xrotation Yrotation
          JOINT RightArm
          {
            OFFSET -13.1216 3.0287 -4.9007
            CHANNELS 3 Zrotation Xrotation Yrotation
            JOINT RightForeArm
            {
              OFFSET -27.4081 -0.0973053 -0.2375
              CHANNELS 3 Zrotation Xrotation Yrotation
              JOINT RightHand
              {
                OFFSET -22.8641 0.0664063 -0.1369
                CHANNELS 3 Zrotation Xrotation Yrotation
                JOINT RightHandIndex1
                {
                  OFFSET -8.8614 0.774994 2.4612
                  CHANNELS 3 Zrotation Xrotation Yrotation
                  JOINT RightHandIndex2
                  {
                    OFFSET -3.3146 -0.808304 0.5841
                    CHANNELS 3 Zrotation Xrotation Yrotation
                    JOINT RightHandIndex3
                    {
                      OFFSET -2.2628 -0.552002 0.3989
                      CHANNELS 3 Zrotation Xrotation Yrotation
                      End Site
                      {
                        OFFSET -1.6102 -0.4807 0.2612
                      }
                    }
                  }
                }
                JOINT RightHandMiddle1
                {
                  OFFSET -8.9937 0.894989 0.2143
                  CHANNELS 3 Zrotation Xrotation Yrotation
                  JOINT RightHandMiddle2
                  {
                    OFFSET -4.0984 0.0113983 -0.0242
                    CHANNELS 3 Zrotation Xrotation Yrotation
                    JOINT RightHandMiddle3
                    {
                      OFFSET -2.2716 0.00691223 -0.0138001
                      CHANNELS 3 Zrotation Xrotation Yrotation
                      End Site
                      {
                        OFFSET -2.0404 -0.1441 0.0027
                      }
                    }
                  }
                }
                JOINT RightHandRing1
                {
                  OFFSET -8.5234 0.597198 -2.0164
                  CHANNELS 3 Zrotation Xrotation Yrotation
                  JOINT RightHandRing2
                  {
                    OFFSET -3.7188 -0.188309 -0.2328
                    CHANNELS 3 Zrotation Xrotation Yrotation
                    JOINT RightHandRing3
                    {
                      OFFSET -2.1191 -0.106598 -0.1332
                      CHANNELS 3 Zrotation Xrotation Yrotation
                      End Site
                      {
                        OFFSET -1.8737 -0.2304 -0.0886
                      }
                    }
                  }
                }
                JOINT RightHandPinky1
                {
                  OFFSET -7.9094 -0.601105 -3.4825
                  CHANNELS 3 Zrotation Xrotation Yrotation
                  JOINT RightHandPinky2
                  {
                    OFFSET -2.2874 -0.477005 -0.6314
                    CHANNELS 3 Zrotation Xrotation Yrotation
                    JOINT RightHandPinky3
                    {
                      OFFSET -1.6774 -0.349396 -0.4633
                      CHANNELS 3 Zrotation Xrotation Yrotation
                      End Site
                      {
                        OFFSET -1.4888 -0.4091 -0.3416
                      }
                    }
                  }
                }
                JOINT RightHandThumb1
                {
                  OFFSET -1.833 -1.38751 1.3896
                  CHANNELS 3 Zrotation Xrotation Yrotation
                  JOINT RightHandThumb2
                  {
                    OFFSET -3.41299 -1.12099 2.5732
                    CHANNELS 3 Zrotation Xrotation Yrotation
                    JOINT RightHandThumb3
                    {
                      OFFSET -2.24741 -0.804108 1.6192
                      CHANNELS 3 Zrotation Xrotation Yrotation
                      End Site
                      {
                        OFFSET -1.6527 -0.5689 1.1317
                      }
                    }
                  }
                }
              }
            }
          }
        }
      }
    }
  }
  JOINT RightUpLeg
  {
    OFFSET -9.1966 3.8861 -0.7581
    CHANNELS 3 Zrotation Xrotation Yrotation
    JOINT RightLeg
    {
      OFFSET -0.7359 -41.0265 0
      CHANNELS 3 Zrotation Xrotation Yrotation
      JOINT RightFoot
      {
        OFFSET 0 -40.2855 0
        CHANNELS 3 Zrotation Xrotation Yrotation
        JOINT RightToeBase
        {
          OFFSET 0 -5.6122 11.7359
          CHANNELS 3 Zrotation Xrotation Yrotation
          End Site
          {
            OFFSET 0 0 7.8731
          }
        }
      }
    }
  }
  JOINT LeftUpLeg
  {
    OFFSET 9.1965 3.8864 -0.7581
    CHANNELS 3 Zrotation Xrotation Yrotation
    JOINT LeftLeg
    {
      OFFSET 0.7359 -41.0268 0
      CHANNELS 3 Zrotation Xrotation Yrotation
      JOINT LeftFoot
      {
        OFFSET 0 -40.2855 0
        CHANNELS 3 Zrotation Xrotation Yrotation
        JOINT LeftToeBase
        {
          OFFSET 0 -5.6122 11.7359
          CHANNELS 3 Zrotation Xrotation Yrotation
          End Site
          {
            OFFSET 0 0 7.8731
          }
        }
      }
    }
  }
}
MOTION
Frames:	4
Frame Time:	0.0333333
5.84602e-005 68.8428 3.50346 0 0 -0 0 0 -0 0 0 -0 0 0 -0 0 0 -0 0 0 -0 0 0 -0 0 0 -0 0 0 -0 0 0 -0 0 0 -0 0 0 -0 0 0 -0 0 0 -0 -0.0146107 -8.87603e-005 -2.63497e-007 2.99804e-018 -2.42657e-020 -1.42182e-022 0 0 -0 -0.0187562 -0.001176 5.858e-005 5.06224e-018 3.88251e-019 1.21329e-020 0 0 -0 -0.012269 -0.00324817 0.000675346 -1.74678e-018 3.88251e-019 -0 0 0 -0 0 0 -0 0 0 -0 0 0 -0 0 0 -0 0 0 -0 0 0 -0 0 0 -0 0 0 -0 0 0 -0 0 0 -0 0.0149955 -9.10982e-005 2.64101e-007 -9.69331e-018 1.21329e-020 -4.7394e-023 0 0 -0 0.0189956 -0.00119102 -5.96516e-005 -5.41541e-019 0 2.42657e-020 0 0 -0 0.0122698 -0.00324857 -0.000673756 -2.00796e-019 0 -1.94126e-019 0 0 -0 0 0 -0 0 0 -0 3.39842 1.33031 -0.0637918 -5.65207e-008 0.834868 -0.000436188 -3.39935 -2.16518 -0.0642563 -8.89002e-024 -1.18485e-023 -1.48106e-024 -3.39844 1.35642 0.0640283 -3.18788e-007 0.782166 -0.000588827 3.39931 -2.13858 0.0634662 1.1399e-023 0 -0 
1.59384 4.03392 3.52893 0 0 -0 -0.26973 -0.156128 -0.206532 -0.540024 -0.311281 -0.413799 -0.540024 -0.311281 -0.413798 4.10394 12.9656 2.07471 -2.12164e-007 2.56656e-009 -2.24738e-008 -8.00255 -0.0420647 0.275771 -63.0163 -6.09498e-007 -4.00314 -2.60179e-006 -2.73226e-007 -8.00265 -7.00031 1.86916e-006 -4.34621e-006 4.32804e-006 6.09383e-007 -2.58559e-007 -3.39379e-006 -8.8005e-007 -1.4758e-007 4.32804e-006 6.09383e-007 -2.58559e-007 4.32804e-006 6.09383e-007 -2.58559e-007 -0.0145956 -8.84427e-005 9.79323e-007 8.91457e-007 5.56389e-008 -1.35152e-007 4.32804e-006 6.09383e-007 -2.58559e-007 -0.0186996 -0.00117284 5.95078e-005 4.32891e-006 6.09478e-007 -2.58507e-007 4.32804e-006 6.09383e-007 -2.58559e-007 -0.0122343 -0.0032413 0.000675294 4.3286e-006 6.09536e-007 -2.58648e-007 4.32804e-006 6.09383e-007 -2.58559e-007 -3.39379e-006 -8.8005e-007 -1.4758e-007 4.32804e-006 6.09383e-007 -2.58559e-007 7.99918 -0.194696 1.51998e-005 69.1692 0.134814 107.998 -3.25819e-008 1.257e-005 7.99915 6.99683 -1.99094e-006 5.47819e-006 -2.42707e-006 5.29081e-007 -1.3807e-006 2.42707e-006 -5.29081e-007 1.3807e-006 -2.42707e-006 5.29081e-007 -1.3807e-006 -2.42707e-006 5.29081e-007 -1.3807e-006 0.0149476 -9.69592e-005 4.2343e-007 -3.18055e-015 3.18055e-015 3.18055e-015 -2.42707e-006 5.29081e-007 -1.3807e-006 0.018952 -0.00118472 -6.23062e-005 -0 0 9.54166e-015 -2.42707e-006 5.29081e-007 -1.3807e-006 0.0122667 -0.00324265 -0.000675545 1.59028e-015 -1.98785e-015 -3.18055e-015 -2.42707e-006 5.29081e-007 -1.3807e-006 2.42707e-006 -5.29081e-007 1.3807e-006 -2.42707e-006 5.29081e-007 -1.3807e-006 -6.65641 -66.3715 -13.9433 -174.814 14.7505 161.706 12.2436 24.8763 -22.3664 2.22334e-006 6.15582e-007 6.99108e-007 6.66007 -66.3778 13.9419 174.809 14.7415 -161.713 -12.2443 24.8759 22.3616 -2.29409e-006 9.60652e-007 -1.12012e-006 
1.59384 4.03392 3.52893 0 0 -0 -0.26973 -0.156128 -0.206532 -0.540024 -0.311281 -0.413799 -0.540024 -0.311281 -0.413798 4.15079 12.957 2.21826 -3.76396e-007 -7.21328e-007 -3.25565e-007 -8.00255 -0.0420647 0.275771 -63.0163 -1.6501e-007 -4.00314 1.48667e-006 4.35983e-007 -8.00265 -7.00032 -6.59007e-007 -1.58417e-006 6.95746e-016 0 -1.59028e-015 8.94531e-016 -7.95139e-016 -0 1.09332e-015 3.97569e-016 -0 6.95746e-016 0 -1.59028e-015 -0.0146008 -8.9002e-005 -7.45011e-007 -7.95139e-016 7.95139e-016 -0 6.95746e-016 0 -1.59028e-015 -0.0187537 -0.00117647 5.84579e-005 1.49089e-015 0 -3.18055e-015 6.95746e-016 0 -1.59028e-015 -0.0122499 -0.0032434 0.00067528 -1.09332e-015 2.78299e-015 -3.18055e-015 6.95746e-016 0 -1.59028e-015 8.94531e-016 -7.95139e-016 -0 1.09332e-015 3.97569e-016 -0 7.99918 -0.194696 1.51949e-005 69.1692 0.134804 107.998 -7.78435e-007 -7.06367e-007 7.99915 6.99682 -7.50157e-006 6.66282e-006 -7.95139e-016 -2.38542e-015 6.36111e-015 3.97569e-015 -1.19271e-015 -0 -2.38542e-015 -3.18055e-015 -0 -7.95139e-016 -2.38542e-015 6.36111e-015 0.0149545 -9.49242e-005 4.371e-006 -2.38542e-015 3.57812e-015 -3.18055e-015 -7.95139e-016 -2.38542e-015 6.36111e-015 0.0189676 -0.00118991 -6.22622e-005 -4.41391e-032 7.95139e-016 3.18055e-015 -7.95139e-016 -2.38542e-015 6.36111e-015 0.0122837 -0.00325212 -0.000674613 7.95139e-016 5.96354e-015 -6.36111e-015 -7.95139e-016 -2.38542e-015 6.36111e-015 3.97569e-015 -1.19271e-015 -0 -2.38542e-015 -3.18055e-015 -0 -6.65641 -66.3715 -13.9433 -174.814 14.7505 161.706 12.2436 24.8763 -22.3664 2.22334e-006 6.15582e-007 6.99108e-007 6.66007 -66.3778 13.9419 174.809 14.7415 -161.713 -12.2443 24.8759 22.3616 8.25733e-007 3.08265e-006 -1.98491e-006 
1.59384 4.03392 3.52893 0 0 -0 -0.26973 -0.156128 -0.206532 -0.540024 -0.311281 -0.413799 -0.540024 -0.311281 -0.413798 4.19767 12.9482 2.36185 -4.24312e-007 6.23657e-009 -4.48433e-008 -8.00255 -0.0420647 0.275771 -63.0163 -1.6501e-007 -4.00314 1.48667e-006 4.35983e-007 -8.00265 -7.00032 -6.59007e-007 -1.58417e-006 6.95746e-016 0 -1.59028e-015 8.94531e-016 -7.95139e-016 -0 1.09332e-015 3.97569e-016 -0 6.95746e-016 0 -1.59028e-015 -0.0146008 -8.9002e-005 -7.45011e-007 -7.95139e-016 7.95139e-016 -0 6.95746e-016 0 -1.59028e-015 -0.0187537 -0.00117647 5.84579e-005 1.49089e-015 0 -3.18055e-015 6.95746e-016 0 -1.59028e-015 -0.0122499 -0.0032434 0.00067528 -1.09332e-015 2.78299e-015 -3.18055e-015 6.95746e-016 0 -1.59028e-015 8.94531e-016 -7.95139e-016 -0 1.09332e-015 3.97569e-016 -0 7.99918 -0.194696 1.51949e-005 69.1692 0.134804 107.998 -7.78435e-007 -7.06367e-007 7.99915 6.99682 -7.50157e-006 6.66282e-006 -7.95139e-016 -2.38542e-015 6.36111e-015 3.97569e-015 -1.19271e-015 -0 -2.38542e-015 -3.18055e-015 -0 -7.95139e-016 -2.38542e-015 6.36111e-015 0.0149545 -9.49242e-005 4.371e-006 -2.38542e-015 3.57812e-015 -3.18055e-015 -7.95139e-016 -2.38542e-015 6.36111e-015 0.0189676 -0.00118991 -6.22622e-005 -4.41391e-032 7.95139e-016 3.18055e-015 -7.95139e-016 -2.38542e-015 6.36111e-015 0.0122837 -0.00325212 -0.000674613 7.95139e-016 5.96354e-015 -6.36111e-015 -7.95139e-016 -2.38542e-015 6.36111e-015 3.97569e-015 -1.19271e-015 -0 -2.38542e-015 -3.18055e-015 -0 -6.65641 -66.3715 -13.9433 -174.814 14.7505 161.706 12.2436 24.8763 -22.3664 2.22334e-006 6.15582e-007 6.99108e-007 6.66007 -66.3778 13.9419 174.809 14.7415 -161.713 -12.2443 24.8759 22.3616 8.25733e-007 3.08265e-006 -1.98491e-006 
